<?xml version="1.0" encoding="utf-8"?>
<!-- Generator: Adobe Illustrator 21.1.0, SVG Export Plug-In . SVG Version: 6.00 Build 0)  -->
<svg version="1.1" id="Layer_1" xmlns="http://www.w3.org/2000/svg" xmlns:xlink="http://www.w3.org/1999/xlink" x="0px" y="0px"
	 viewBox="0 0 108 108" style="enable-background:new 0 0 108 108;" xml:space="preserve">
<style type="text/css">
	.st0{fill:#999999;}
	.st1{fill:#FFFFFF;}
</style>
<g>
	<g>
		<path class="st0" d="M94.8,90.1H16.2c-4.6,0-8.2-3.6-8.2-8.2V24.2c0-4.6,3.6-8.2,8.2-8.2h78.5c4.8,0,8.4,3.6,8.4,8.2v57.6
			C103,86.5,99.4,90.1,94.8,90.1z"/>
	</g>
	<path class="st1" d="M91,36.9h-73c-1.3,0-2.5-1.1-2.5-2.5v-4.4c0-1.5,1.1-2.7,2.5-2.7h72.8c1.3,0,2.5,1.1,2.5,2.5v4.4
		C93.5,35.8,92.4,36.9,91,36.9z"/>
	<path class="st1" d="M91,57.8h-73c-1.3,0-2.5-1.1-2.5-2.5V51c0-1.5,1.1-2.7,2.5-2.7h72.8c1.3,0,2.5,1.1,2.5,2.5v4.4
		C93.5,56.7,92.4,57.8,91,57.8z"/>
	<path class="st1" d="M91,78.7h-73c-1.3,0-2.5-1.1-2.5-2.5v-4.4c0-1.5,1.1-2.7,2.5-2.7h72.8c1.3,0,2.5,1.1,2.5,2.5V76
		C93.5,77.6,92.4,78.7,91,78.7z"/>
</g>
</svg>
