<?xml version="1.0" encoding="utf-8"?>
<!-- Generator: Adobe Illustrator 21.1.0, SVG Export Plug-In . SVG Version: 6.00 Build 0)  -->
<svg version="1.1" id="Layer_1" xmlns="http://www.w3.org/2000/svg" xmlns:xlink="http://www.w3.org/1999/xlink" x="0px" y="0px"
	 viewBox="0 0 58 58" style="enable-background:new 0 0 58 58;" xml:space="preserve">
<style type="text/css">
	.st0{fill:#999999;}
	.st1{fill:#FFFFFF;}
</style>
<g>
	<g>
		<path class="st0" d="M49.7,42H8.3C5.9,42,4,40.1,4,37.7V7.3C4,4.9,5.9,3,8.3,3h41.3C52.1,3,54,4.9,54,7.3v30.3
			C54,40.1,52.1,42,49.7,42z"/>
	</g>
	<path class="st1" d="M47.7,14H9.3C8.6,14,8,13.4,8,12.7v-2.3C8,9.6,8.6,9,9.3,9h38.3c0.7,0,1.3,0.6,1.3,1.3v2.3
		C49,13.4,48.4,14,47.7,14z"/>
	<path class="st1" d="M47.7,25H9.3C8.6,25,8,24.4,8,23.7v-2.3C8,20.6,8.6,20,9.3,20h38.3c0.7,0,1.3,0.6,1.3,1.3v2.3
		C49,24.4,48.4,25,47.7,25z"/>
	<path class="st1" d="M47.7,36H9.3C8.6,36,8,35.4,8,34.7v-2.3C8,31.6,8.6,31,9.3,31h38.3c0.7,0,1.3,0.6,1.3,1.3v2.3
		C49,35.4,48.4,36,47.7,36z"/>
</g>
</svg>
