<?xml version="1.0" encoding="utf-8"?>
<!-- Generator: Adobe Illustrator 21.1.0, SVG Export Plug-In . SVG Version: 6.00 Build 0)  -->
<svg version="1.1" id="Layer_1" xmlns="http://www.w3.org/2000/svg" xmlns:xlink="http://www.w3.org/1999/xlink" x="0px" y="0px"
	 viewBox="0 0 250 250" style="enable-background:new 0 0 250 250;" xml:space="preserve">
<style type="text/css">
	.st0{fill:#CCCCCC;}
	.st1{fill:#FFFFFF;}
</style>
<g>
	<path class="st0" d="M219,212.7H31.6c-11,0-19.6-8.6-19.6-19.6V55.6c0-11,8.6-19.6,19.6-19.6h187.2c11.4,0,20,8.6,20,19.6V193
		C238.5,204.1,230,212.7,219,212.7z"/>
</g>
<path class="st1" d="M209.9,85.8H35.8c-3.1,0-6-2.6-6-6V69.4c0-3.6,2.6-6.4,6-6.4h173.6c3.1,0,6,2.6,6,6v10.5
	C215.9,83.2,213.3,85.8,209.9,85.8z"/>
<path class="st1" d="M209.9,135.7H35.8c-3.1,0-6-2.6-6-6v-10.3c0-3.6,2.6-6.4,6-6.4h173.6c3.1,0,6,2.6,6,6v10.5
	C215.9,133.1,213.3,135.7,209.9,135.7z"/>
<path class="st1" d="M209.9,185.5H35.8c-3.1,0-6-2.6-6-6V169c0-3.6,2.6-6.4,6-6.4h173.6c3.1,0,6,2.6,6,6v10.5
	C215.9,182.9,213.3,185.5,209.9,185.5z"/>
</svg>
