<?xml version="1.0" encoding="utf-8"?>
<!-- Generator: Adobe Illustrator 21.1.0, SVG Export Plug-In . SVG Version: 6.00 Build 0)  -->
<svg version="1.1" id="Layer_1" xmlns="http://www.w3.org/2000/svg" xmlns:xlink="http://www.w3.org/1999/xlink" x="0px" y="0px"
	 viewBox="0 0 250 250" style="enable-background:new 0 0 250 250;" xml:space="preserve">
<style type="text/css">
	.st0{fill:#FFFFFF;}
	.st1{fill:#CCCCCC;}
</style>
<g>
	<path class="st0" d="M218,213.7H30.6c-11,0-19.6-8.6-19.6-19.6V56.6c0-11,8.6-19.6,19.6-19.6h187.2c11.4,0,20,8.6,20,19.6V194
		C237.5,205.1,229,213.7,218,213.7z"/>
</g>
<path class="st1" d="M208.9,86.8H34.8c-3.1,0-6-2.6-6-6V70.4c0-3.6,2.6-6.4,6-6.4h173.6c3.1,0,6,2.6,6,6v10.5
	C214.9,84.2,212.3,86.8,208.9,86.8z"/>
<path class="st1" d="M208.9,136.7H34.8c-3.1,0-6-2.6-6-6v-10.3c0-3.6,2.6-6.4,6-6.4h173.6c3.1,0,6,2.6,6,6v10.5
	C214.9,134.1,212.3,136.7,208.9,136.7z"/>
<path class="st1" d="M208.9,186.5H34.8c-3.1,0-6-2.6-6-6V170c0-3.6,2.6-6.4,6-6.4h173.6c3.1,0,6,2.6,6,6v10.5
	C214.9,183.9,212.3,186.5,208.9,186.5z"/>
</svg>
